<?xml version="1.0" encoding="iso-8859-1"?>
<!-- Uploaded to: SVG Repo, www.svgrepo.com, Generator: SVG Repo Mixer Tools -->
<svg height="800px" width="800px" version="1.1" id="Layer_1" xmlns="http://www.w3.org/2000/svg" xmlns:xlink="http://www.w3.org/1999/xlink" 
	 viewBox="0 0 511.672 511.672" xml:space="preserve">
<path style="fill:#8CC153;" d="M318.565,0C312.678,0,307.9,4.778,307.9,10.665h-21.314C286.586,4.778,281.808,0,275.921,0
	s-10.665,4.778-10.665,10.665h-21.314C243.942,4.778,239.164,0,233.277,0s-10.649,4.778-10.649,10.665h-21.33
	C201.298,4.778,196.535,0,190.649,0c-5.887,0-10.665,4.778-10.665,10.665l42.645,106.604h63.959l42.629-106.604
	C329.215,4.778,324.452,0,318.565,0z"/>
<path style="fill:#A0D468;" d="M254.794,95.501c-224.997,0-281.382,416.171,1.92,416.171
	C540.018,511.672,479.791,95.501,254.794,95.501z"/>
<path style="fill:#E6E9ED;" d="M265.256,191.877c0-5.887-4.763-10.649-10.649-10.649s-10.665,4.763-10.665,10.649
	c0,0.421,0.031,0.843,0.078,1.249v233.272c0,5.887,4.778,10.665,10.665,10.665c5.887,0,10.649-4.778,10.649-10.665V191.877H265.256z
	"/>
<path style="fill:#434A54;" d="M307.9,106.604H201.297c-5.887,0-10.649-4.778-10.649-10.665s4.763-10.649,10.649-10.649h106.604
	c5.887,0,10.665,4.762,10.665,10.649C318.565,101.825,313.787,106.604,307.9,106.604z"/>
<path style="fill:#F5F7FA;" d="M301.576,339.782l-76.419-76.373c-9.947-9.931-12.883-18.035-11.399-21.643
	c2.077-4.997,13.226-7.245,23.36-7.245h70.861c5.887,0,10.665-4.778,10.665-10.665s-4.778-10.649-10.665-10.649h-70.861
	c-30.106,0-39.896,12.789-43.051,20.409c-7.354,17.77,6.886,35.743,16.021,44.877l76.42,76.373
	c9.947,9.931,12.898,18.035,11.398,21.643c-2.076,5.012-13.226,7.245-23.359,7.245h-73.172c-5.887,0-10.649,4.778-10.649,10.665
	s4.762,10.665,10.649,10.665h73.172c30.105,0,39.896-12.805,43.051-20.425C324.952,366.89,310.727,348.917,301.576,339.782z"/>
</svg>